<?xml version="1.0" standalone="no"?>
<!DOCTYPE svg PUBLIC "-//W3C//DTD SVG 1.1//EN" "http://www.w3.org/Graphics/SVG/1.1/DTD/svg11.dtd" >
<svg xmlns="http://www.w3.org/2000/svg">
<metadata>Generated by IcoMoon</metadata>
<defs>
<font id="icomoon" horiz-adv-x="1024">
<font-face units-per-em="1024" ascent="960" descent="-64" />
<missing-glyph horiz-adv-x="1024" />
<glyph unicode="&#x20;" horiz-adv-x="512" d="" />
<glyph unicode="&#xe900;" glyph-name="流程箭头" horiz-adv-x="9444" d="M7884.042 504.889h-7884.042v-113.778h7884.042v-353.913l1477.34 420.922-1477.34 420.922v-374.153z" />
<glyph unicode="&#xe901;" glyph-name="log" horiz-adv-x="819" d="M85.598 960h478.126c22.707 0.001 44.485-8.993 60.539-25.003l163.834-163.328c16.059-16.005 25.081-37.715 25.080-60.352v-689.984c0-47.128-38.323-85.333-85.598-85.333h-641.981c-47.274 0-85.598 38.205-85.598 85.333v853.333c0 47.128 38.323 85.333 85.598 85.333zM123.7 349.194h57.664v293.156h-57.664v-293.156zM221.299 447.33c0-31.757 9.461-56.858 28.384-75.304s44.502-27.668 76.736-27.668c32.832 0 58.858 9.611 78.079 28.832s28.832 45.069 28.832 77.542c0 30.922-9.372 55.545-28.116 73.871s-44.054 27.489-75.93 27.489c-32.951 0-59.186-9.312-78.706-27.937s-29.28-44.233-29.28-76.826zM279.859 448.047c0 18.983 4.208 33.667 12.625 44.054s20.206 15.58 35.369 15.58c31.16 0 46.74-19.341 46.74-58.022 0-40.592-15.461-60.888-46.382-60.888-32.235 0-48.352 19.758-48.352 59.276zM665.6 371.042v176.216h-57.664v-23.639h-0.895c-12.178 18.983-30.444 28.474-54.799 28.474-26.862 0-48.561-9.939-65.096-29.817s-24.803-46.471-24.803-79.781c0-29.847 7.492-53.665 22.475-71.453s34.951-26.683 59.903-26.683c27.579 0 48.352 11.282 62.32 33.846h0.895v-16.475c0-19.58-5.82-34.891-17.46-45.934s-27.787-16.565-48.441-16.565c-20.893 0-41.606 5.969-62.141 17.908v-49.426c15.759-7.641 37.010-11.461 63.753-11.461 39.398 0 69.573 9.939 90.526 29.817s31.429 48.203 31.429 84.974zM608.473 460.941v-17.371c0-16.237-4.119-29.429-12.357-39.577s-18.923-15.222-32.056-15.222c-13.013 0-23.46 4.984-31.339 14.953s-11.819 23.609-11.819 40.92c0 19.938 4.089 35.428 12.267 46.472s19.311 16.565 33.399 16.565c12.058 0 22.057-4.507 29.996-13.521s11.909-20.087 11.909-33.22z" />
<glyph unicode="&#xe902;" glyph-name="暂无数据" d="M511.865 959.055v0c282.308 0 511.166-228.858 511.166-511.166s-228.858-511.166-511.166-511.166c-282.308 0-511.166 228.858-511.166 511.166s228.858 511.166 511.166 511.166zM805.115 301.264l-0.015 293.251-293.236 146.618-293.251-146.351v-293.517l293.251-146.618 293.251 146.618zM255.268 557.86v0 18.327l238.277-119.138v-256.596l-238.277 119.138v237.842h11.652l-11.652 0.427zM732.378 595.079l-220.513 110.535-85.029-42.667 221.573-110.207 83.97 42.339zM388.406 642.15l-97.054-47.636 220.491-109.399 100.979 48.901-224.415 108.134zM530.184 200.445l238.269 119.138v256.589l-238.269-119.138v-256.589z" />
<glyph unicode="&#xe903;" glyph-name="1" d="M512 960c-281.6 0-512-230.4-512-512s230.4-512 512-512c281.6 0 512 230.4 512 512s-230.4 512-512 512zM512 38.4c-225.28 0-409.6 184.32-409.6 409.6s184.32 409.6 409.6 409.6c225.28 0 409.6-184.32 409.6-409.6s-184.32-409.6-409.6-409.6zM667.214 242.046v71.099h-88.805v364.901l-181.206-38.178v-73.312l91.848 20.749v-274.16h-89.358v-71.099h267.52z" />
<glyph unicode="&#xe904;" glyph-name="2" d="M512 960c-281.6 0-512-230.4-512-512s230.4-512 512-512c281.6 0 512 230.4 512 512s-230.4 512-512 512zM512 38.4c-225.28 0-409.6 184.32-409.6 409.6s184.32 409.6 409.6 409.6c225.28 0 409.6-184.32 409.6-409.6s-184.32-409.6-409.6-409.6zM644.8 232.8v71.733h-170.4v1.6l86.133 77.6c58.667 52.978 88 103.644 88 152 0 36.622-11.911 65.289-35.733 86s-56.089 31.067-96.8 31.067c-44.978 0-85.155-11.733-120.533-35.2v-76.533c33.067 28.445 67.289 42.667 102.667 42.667 42.134 0 63.2-19.644 63.2-58.933 0-17.422-4.978-34.222-14.933-50.4s-27.378-36.178-52.267-60l-118.667-113.867v-67.733h269.333z" />
<glyph unicode="&#xe905;" glyph-name="步骤完成" d="M512 960c-281.6 0-512-230.4-512-512s230.4-512 512-512c281.6 0 512 230.4 512 512s-230.4 512-512 512zM409.6 192l-256 256 71.68 71.68 184.32-184.32 389.12 389.12 71.68-71.68-460.8-460.8z" />
<glyph unicode="&#xe906;" glyph-name="产品管理" d="M827.609 536.86h72.186c17.036 0 31.115 13.93 31.115 31.115v360.911c0 17.036-13.93 31.115-31.115 31.115h-360.911c-17.036 0-31.115-13.93-31.115-31.115v-360.911c0-17.036 13.93-31.115 31.115-31.115h42.713l6.024 41.439c2.473 29.498 30.551 50.051 56.951 50.051h123.38c29.73 0 57.732-25.219 54.6-57.986l5.058-33.505zM402.682 450.342c-3.324 1.221-6.913 1.889-10.656 1.889h-360.911c-17.036 0-31.115-13.93-31.115-31.115v-360.911c0-17.036 13.93-31.115 31.115-31.115h360.911c17.004 0 31.061 13.878 31.114 31.017l-49.369 88.049-1.065 2.027c-10.922 22.262-7.827 47.498 10.758 66.439l3.227 2.961 36.448 30.071v43.874l-37.706 29.279-1.969 2.007c-18.611 18.968-28.967 47.888-10.913 71.793l30.129 53.736zM0 928.885c0 17.184 14.079 31.115 31.115 31.115h360.911c17.184 0 31.115-14.079 31.115-31.115v-360.911c0-17.184-14.079-31.115-31.115-31.115h-360.911c-17.184 0-31.115 14.079-31.115 31.115v360.911zM934.514 240.855c0 9.431 3.085 18.861 3.085 31.436s0 22.005-3.085 31.436l64.775 53.44c6.169 6.287 6.169 12.574 3.085 18.861l-61.69 110.024c-3.085 3.144-9.254 6.287-18.507 3.144l-77.113-31.436c-15.423 12.574-33.93 22.005-52.437 31.436l-12.338 81.732c3.085 9.431-6.169 15.718-12.338 15.718h-123.38c-6.169 0-15.423-6.287-15.423-12.574l-12.338-84.876c-18.507-6.287-33.93-18.861-52.437-31.436l-74.028 31.436c-9.254 3.144-15.423 0-21.592-6.287l-61.69-110.024c-3.085-3.144 0-12.574 6.169-18.861l64.775-50.297c0-9.431-3.085-18.861-3.085-31.436s0-22.005 3.085-31.436l-64.775-53.44c-6.169-6.287-6.169-12.574-3.085-18.861l61.69-110.024c3.085-3.144 9.254-6.287 18.507-3.144l77.113 31.436c15.423-12.574 33.93-22.005 52.437-31.436l12.338-81.732c0-6.287 6.169-12.574 15.423-12.574h123.38c6.169 0 15.423 6.287 15.423 12.574l12.338 81.732c18.507 9.431 37.014 18.861 52.437 31.436l77.113-31.436c6.169-3.144 15.423 0 18.507 6.287l61.69 110.024c3.085 6.287 3.085 15.718-3.085 18.861l-70.944 50.297zM698.976 167.218c-57.246 0-105.453 48.207-105.453 105.453s48.207 105.453 105.453 105.453c57.246 0 105.453-48.207 105.453-105.453s-48.207-105.453-105.453-105.453z" />
<glyph unicode="&#xe907;" glyph-name="单选／未选" d="M512-64c-282.77 0-512 229.23-512 512s229.23 512 512 512c282.77 0 512-229.23 512-512s-229.23-512-512-512zM512 82.286c201.978 0 365.714 163.736 365.714 365.714s-163.736 365.714-365.714 365.714c-201.978 0-365.714-163.736-365.714-365.714s163.736-365.714 365.714-365.714z" />
<glyph unicode="&#xe908;" glyph-name="单选／已选" d="M512-64c-282.77 0-512 229.23-512 512s229.23 512 512 512c282.77 0 512-229.23 512-512s-229.23-512-512-512zM512 14.769c239.267 0 433.231 193.964 433.231 433.231s-193.964 433.231-433.231 433.231c-239.267 0-433.231-193.964-433.231-433.231s193.964-433.231 433.231-433.231zM512 132.923c-174.012 0-315.077 141.065-315.077 315.077s141.065 315.077 315.077 315.077c174.012 0 315.077-141.065 315.077-315.077s-141.065-315.077-315.077-315.077z" />
<glyph unicode="&#xe909;" glyph-name="多选／未选" d="M910.222 846.222v-796.444h-796.444v796.444h796.444zM910.222 960h-796.444c-62.578 0-113.778-51.2-113.778-113.778v-796.444c0-62.578 51.2-113.778 113.778-113.778h796.444c62.578 0 113.778 51.2 113.778 113.778v796.444c0 62.578-51.2 113.778-113.778 113.778v0z" />
<glyph unicode="&#xe90a;" glyph-name="多选／已选" d="M910.222 960h-796.444c-62.578 0-113.778-51.2-113.778-113.778v-796.444c0-62.578 51.2-113.778 113.778-113.778h796.444c62.578 0 113.778 51.2 113.778 113.778v796.444c0 62.578-51.2 113.778-113.778 113.778zM398.222 163.556l-284.444 284.444 79.644 79.644 204.8-204.8 432.356 432.356 79.644-79.644-512-512z" />
<glyph unicode="&#xe90b;" glyph-name="管理员" horiz-adv-x="1235" d="M993.995 417.882c19.33 46.356 30.005 97.225 30.005 150.588 0 216.243-175.286 391.529-391.529 391.529s-391.529-175.286-391.529-391.529c0-53.363 10.674-104.232 30.005-150.588h-30.005c-133.068 0-240.941-107.873-240.941-240.941s107.873-240.941 240.941-240.941h752.941c133.068 0 240.941 107.873 240.941 240.941 0 133.030-107.812 240.88-240.828 240.941zM398.102 417.882c57.455 64.537 141.189 105.171 234.369 105.171 93.224 0 176.963-40.634 234.419-105.171h-468.788zM632.471 829.49c72.115 0 130.56-58.445 130.56-130.51 0-72.115-58.445-130.51-130.56-130.51-72.064 0-130.51 58.395-130.51 130.51 0 72.064 58.445 130.51 130.51 130.51zM230.706 210.559h181.176v-70.882h-22.353v7.353h-136.176v-22.353h183.235v-76.765h-22.353v11.176h-160.882v-11.471h-22.647v162.941zM414.235 107.029v-28.824h-160.882v28.824h160.882zM389.529 192.912v-28.235h-136.176v28.235h136.176zM197.471 251.441h125.735c-3.431 6.176-7.598 13.039-12.5 20.588l20.294 8.824c6.471-9.412 12.353-19.216 17.647-29.412h116.176v-45.588h-22.647v26.471h-222.059v-26.765h-22.647v45.882zM274.235 252.912c-7.451 9.804-15.588 19.804-24.412 30l13.235 9.412h-25.294c-11.275-14.314-23.823-26.961-37.647-37.941-3.922 4.706-8.824 10.196-14.706 16.471 22.941 17.843 41.667 40.294 56.176 67.353h25.294c-4.902-9.706-10.245-18.922-16.029-27.647h86.324v-18.235h-70.588c8.824-8.529 17.157-17.255 25-26.176l-17.353-13.235zM408.647 253.206c-6.471 9.216-14.412 19.216-23.824 30l12.794 9.118h-24.853c-5.686-9.118-11.667-17.549-17.941-25.294-4.314 4.314-10.294 9.118-17.941 14.412 13.726 15.294 25.196 34.216 34.412 56.765h25.294c-4.216-9.706-8.676-18.922-13.382-27.647h93.971v-18.235h-75.294c8.922-8.628 16.961-17.255 24.118-25.882l-17.353-13.235zM577.471 78.794h92.059v42.353h-75v20.588h75v38.824h-47.059v-10.882h-21.765v151.765h159.412v-151.765h-21.765v10.882h-47.059v-38.824h75v-20.588h-75v-42.353h87.941v-20.588h-201.765v20.588zM483.941 96.147c15.098 3.627 29.706 7.255 43.824 10.882v89.118h-36.765v20.588h36.765v73.529h-39.706v20.588h101.176v-20.588h-39.706v-73.529h37.353v-20.588h-37.353v-83.235c12.941 3.627 25.49 7.255 37.647 10.882 0.98-8.824 2.059-16.471 3.235-22.941-33.53-9.020-66.372-18.529-98.529-28.529l-7.941 23.824zM691.294 200.559h47.059v40.882h-47.059v-40.882zM622.471 200.559h47.059v40.882h-47.059v-40.882zM738.353 301.441h-47.059v-40.588h47.059v40.588zM622.471 260.853h47.059v40.588h-47.059v-40.588zM834.824 323.794h197.647v-91.471h-23.529v10.882h-150.588v-10.882h-23.529v91.471zM920.118 186.147h23.824c0.196-10.588-0.098-22.059-0.882-34.412-0.588-8.824-1.765-16.961-3.529-24.412 42.353-16.667 88.627-36.667 138.824-60l-13.235-22.059c-38.235 19.804-82.647 40.392-133.235 61.765-3.529-7.059-8.039-13.235-13.529-18.529-22.745-21.177-61.176-36.078-115.294-44.706-3.333 8.235-7.647 15.686-12.941 22.353 55.098 8.431 91.569 21.471 109.412 39.118 11.961 10.98 18.529 27.157 19.706 48.529 0.784 10.98 1.078 21.765 0.882 32.353zM818.647 215.559h230.294v-107.353h-23.529v86.765h-183.235v-88.529h-23.529v109.118zM1008.941 263.794v39.412h-150.588v-39.412h150.588z" />
<glyph unicode="&#xe90c;" glyph-name="人员" d="M496.485 534.442c-120.575 0-212.779 92.204-212.779 212.779s92.204 212.779 212.779 212.779c120.575 0 212.779-92.204 212.779-212.779s-92.204-212.779-212.779-212.779zM496.485 392.589c163.131 0 496.485-85.112 496.485-248.242v-177.316h-992.97v177.316c0 163.131 333.354 248.242 496.485 248.242z" />
<glyph unicode="&#xe90d;" glyph-name="人员管理" horiz-adv-x="1560" d="M1063.896 534.442c120.575 0 212.779 92.204 212.779 212.779s-92.204 212.779-212.779 212.779c-120.575 0-212.779-92.204-212.779-212.779s92.204-212.779 212.779-212.779zM496.485 534.442c120.575 0 212.779 92.204 212.779 212.779s-92.204 212.779-212.779 212.779c-120.575 0-212.779-92.204-212.779-212.779s92.204-212.779 212.779-212.779zM496.485 392.589c-163.131 0-496.485-85.112-496.485-248.242v-177.316h992.97v177.316c0 163.131-333.354 248.242-496.485 248.242zM1063.896 392.589c-21.278 0-42.556 0-70.926-7.093 85.112-56.741 141.853-141.853 141.853-241.15v-177.316h425.558v177.316c0 163.131-333.354 248.242-496.485 248.242z" />
<glyph unicode="&#xe90e;" glyph-name="问号" d="M512 960c-281.6 0-512-230.4-512-512s230.4-512 512-512c281.6 0 512 230.4 512 512s-230.4 512-512 512zM512 38.4c-225.28 0-409.6 184.32-409.6 409.6s184.32 409.6 409.6 409.6c225.28 0 409.6-184.32 409.6-409.6s-184.32-409.6-409.6-409.6zM544.058 328.533v22.080c0 14.507 3.147 26.933 9.44 37.28s20.853 24.587 43.68 42.72c27.093 21.973 46.187 43.307 57.28 64s16.64 43.307 16.64 67.84c0 38.187-13.547 68.48-40.64 90.88s-65.066 33.6-113.92 33.6c-43.52 0-84.373-10.667-122.56-32v-98.56c34.56 29.867 71.893 44.8 112 44.8 20.693 0 36.587-4.693 47.68-14.080s16.64-21.973 16.64-37.76c0-13.653-3.733-26.4-11.2-38.24s-22.507-27.040-45.12-45.6c-19.627-16.213-33.6-32.373-41.92-48.48s-12.48-35.573-12.48-58.4v-30.080h84.48zM502.138 281.813c-16.427 0-30.293-5.28-41.6-15.84s-16.96-23.2-16.96-37.92c0-14.293 5.653-26.72 16.96-37.28s25.173-15.84 41.6-15.84c16.213 0 30.080 5.227 41.6 15.68s17.28 22.933 17.28 37.44c0 14.933-5.76 27.627-17.28 38.080s-25.387 15.68-41.6 15.68z" />
<glyph unicode="&#xe90f;" glyph-name="选中2" d="M512 960c281.6 0 512-230.4 512-512s-230.4-512-512-512c-281.6 0-512 230.4-512 512s230.4 512 512 512zM644.8 232.8v71.733h-170.4v1.6l86.133 77.6c58.667 52.978 88 103.644 88 152 0 36.622-11.911 65.289-35.733 86s-56.089 31.067-96.8 31.067c-44.978 0-85.155-11.733-120.533-35.2v-76.533c33.067 28.445 67.289 42.667 102.667 42.667 42.134 0 63.2-19.644 63.2-58.933 0-17.422-4.978-34.222-14.933-50.4s-27.378-36.178-52.267-60l-118.667-113.867v-67.733h269.333z" />
<glyph unicode="&#xe910;" glyph-name="选中" d="M512 960c281.6 0 512-230.4 512-512s-230.4-512-512-512c-281.6 0-512 230.4-512 512s230.4 512 512 512zM667.214 242.046v71.099h-88.805v364.901l-181.206-38.178v-73.312l91.848 20.749v-274.16h-89.358v-71.099h267.52z" />
<glyph unicode="&#xe911;" glyph-name="产品管理2" horiz-adv-x="1062" d="M234.752 960c129.651 0 234.754-103.438 234.754-231.036v-231.036h-234.754c-129.65 0-234.752 103.44-234.752 231.036s105.103 231.036 234.752 231.036zM827.173 960c129.65 0 234.752-103.44 234.752-231.036s-105.103-231.036-234.752-231.036h-234.754v231.036c0 127.597 105.103 231.036 234.754 231.036zM827.173 918.205c-51.378 0-99.679-19.689-136.006-55.441-36.316-35.742-56.317-83.26-56.317-133.801v-189.242h192.323c51.377 0 99.678 19.689 136.005 55.441 36.316 35.742 56.317 83.26 56.317 133.801s-20.001 98.059-56.317 133.801c-36.326 35.751-84.627 55.441-136.005 55.441zM827.173-64c-129.651 0-234.754 103.44-234.754 231.036v231.036h234.754c129.65 0 234.752-103.438 234.752-231.036s-105.103-231.036-234.752-231.036zM234.752-64c-129.65 0-234.752 103.438-234.752 231.036s105.103 231.036 234.752 231.036h234.754v-231.036c0-127.597-105.103-231.036-234.754-231.036z" />
<glyph unicode="&#xe912;" glyph-name="线" horiz-adv-x="203776" d="M0-64h7168v1024h-7168v-1024zM12288-64h7168v1024h-7168v-1024zM24576-64h7168v1024h-7168v-1024zM36864-64h7168v1024h-7168v-1024zM49152-64h7168v1024h-7168v-1024zM61440-64h7168v1024h-7168v-1024zM73728-64h7168v1024h-7168v-1024zM86016-64h7168v1024h-7168v-1024zM98304-64h7168v1024h-7168v-1024zM110592-64h7168v1024h-7168v-1024zM122880-64h7168v1024h-7168v-1024zM135168-64h7168v1024h-7168v-1024zM147456-64h7168v1024h-7168v-1024zM159744-64h7168v1024h-7168v-1024zM172032-64h7168v1024h-7168v-1024zM184320-64h7168v1024h-7168v-1024zM196608-64h7168v1024h-7168v-1024z" />
<glyph unicode="&#xe913;" glyph-name="搜索" horiz-adv-x="964" d="M924.152 79.681l39.613-39.207-78.254-79.387-39.613 39.099-241.022 238.376 0.216 0.216-0.54 52.384-17.917 16.201c-62.279-55.409-144.203-88.999-234.006-88.999-194.717 0-352.628 158.125-352.628 353.19s157.911 353.298 352.628 353.298c194.717 0 352.52-158.233 352.52-353.298 0-90.62-34-173.246-90.019-235.676l17.81-17.065 49.867-0.972 0.216 0.216 39.721-39.207 201.409-199.169zM529.426 412.736c38.894 43.337 60.226 99.463 60.226 157.798 0 130.471-105.833 236.559-235.94 236.559s-236.032-106.088-236.032-236.559c0-130.379 105.925-236.467 236.032-236.467 57.744 0 113.373 21.162 156.588 59.531l19.125 19.138z" />
<glyph unicode="&#xe914;" glyph-name="降序" horiz-adv-x="551" d="M206.769 300.94h-164.006c-44.561 0-56.086-26.556-26.078-58.951l226.523-244.541c17.877-19.299 47.49-18.62 64.738 0l226.523 244.541c30.159 32.558 19.101 58.951-26.078 58.951h-163.775v659.060h-137.846v-659.060z" />
<glyph unicode="&#xe915;" glyph-name="升序" horiz-adv-x="551" d="M206.769 642.287h-164.006c-44.561 0-56.086 26.556-26.078 58.951l226.523 244.541c17.877 19.299 47.49 18.62 64.738 0l226.523-244.541c30.159-32.558 19.101-58.951-26.078-58.951h-163.775v-659.060h-137.846v659.060z" />
<glyph unicode="&#xe916;" glyph-name="归档" horiz-adv-x="1451" d="M0-55.467h1450.667v290.133h-1450.667v-290.133zM145.067 162.133h145.067v-145.067h-145.067v145.067zM0 960v-290.133h1450.667v290.133h-1450.667zM290.133 742.4h-145.067v145.067h145.067v-145.067zM0 307.2h1450.667v290.133h-1450.667v-290.133zM145.067 524.8h145.067v-145.067h-145.067v145.067z" />
<glyph unicode="&#xe919;" glyph-name="流程中心" horiz-adv-x="991" d="M265.6 17.657c20.782 18.473 37.54 41.375 48.792 67.226 53.58-29.958 115.342-47.033 181.091-47.033s127.511 17.075 181.091 47.033c11.253-25.85 28.010-48.752 48.792-67.226-67.432-39.65-146.002-62.388-229.884-62.388s-162.452 22.739-229.884 62.388zM47.828 332.244c-4.298 25.096-6.537 50.896-6.537 77.218 0 178.406 103.824 337.525 261.511 411.411 0.224-29.609 7.127-57.628 19.276-82.626-120.132-63.397-198.206-188.836-198.206-328.786 0-18.789 1.394-37.253 4.085-55.293-28.831-1.426-55.996-9.189-80.129-21.925zM943.14 332.244c-24.133 12.736-51.297 20.499-80.129 21.925 2.691 18.040 4.085 36.503 4.085 55.293 0 139.899-78.016 265.352-198.207 328.784 12.149 24.998 19.052 53.017 19.277 82.626 157.765-73.933 261.511-233.072 261.511-411.41 0-26.322-2.239-52.122-6.537-77.218zM264.258 464.516c-9.122 0-16.516 7.395-16.516 16.516v49.548c0 9.122 7.395 16.516 16.516 16.516h489.978c9.122 0 16.516-7.395 16.516-16.516v-49.548c0-9.122-7.395-16.516-16.516-16.516h-489.978zM319.312 271.828c-9.122 0-16.516 7.395-16.516 16.516v49.548c0 9.122 7.395 16.516 16.516 16.516h379.871c9.122 0 16.516-7.395 16.516-16.516v-49.548c0-9.122-7.395-16.516-16.516-16.516h-379.871zM495.484 684.731c-76.013 0-137.634 61.621-137.634 137.634s61.621 137.634 137.634 137.634c76.013 0 137.634-61.621 137.634-137.634s-61.621-137.634-137.634-137.634zM853.333 24.086c-76.013 0-137.634 61.621-137.634 137.634s61.621 137.634 137.634 137.634c76.013 0 137.634-61.621 137.634-137.634s-61.621-137.634-137.634-137.634zM137.634 24.086c-76.013 0-137.634 61.621-137.634 137.634s61.621 137.634 137.634 137.634c76.013 0 137.634-61.621 137.634-137.634s-61.621-137.634-137.634-137.634z" />
<glyph unicode="&#xe91a;" glyph-name="关闭" horiz-adv-x="1069" d="M572.934 445.97l455.541 455.541c8.693 8.693 8.693 22.788 0 31.482s-22.788 8.693-31.482 0l-455.541-455.541-472.224 472.224c-8.693 8.693-22.788 8.693-31.482 0s-8.693-22.788 0-31.482l472.224-472.224-454.768-454.768c-8.693-8.693-8.693-22.788 0-31.482s22.788-8.693 31.482 0l454.768 454.768 439.968-439.968c8.693-8.693 22.788-8.693 31.482 0s8.693 22.788 0 31.482l-439.968 439.968z" />
<glyph unicode="&#xe91b;" glyph-name="规划" d="M910.222 960h-796.444c-62.578 0-113.778-51.2-113.778-113.778v-796.444c0-62.578 51.2-113.778 113.778-113.778h796.444c62.578 0 113.778 51.2 113.778 113.778v796.444c0 62.578-51.2 113.778-113.778 113.778zM341.333 163.556h-113.778v113.778h113.778v-113.778zM341.333 391.111h-113.778v113.778h113.778v-113.778zM341.333 618.667h-113.778v113.778h113.778v-113.778zM796.444 163.556h-398.222v113.778h398.222v-113.778zM796.444 391.111h-398.222v113.778h398.222v-113.778zM796.444 618.667h-398.222v113.778h398.222v-113.778z" />
<glyph unicode="&#xe91c;" glyph-name="开发" d="M915.295 960v0c59.788 0 108.705-52.766 108.705-116.548v-791.484c0-63.783-48.917-115.968-108.705-115.968h-806.59c-59.788 0-108.705 52.186-108.705 115.968v792.063c0 63.783 48.917 115.968 108.705 115.968h806.59zM676.192 486.014c-9.714 0-19.028-3.829-25.88-10.64-14.343-14.187-14.343-37.008-1.247-51.812l110.38-109.175-104.767-103.624c-6.886-6.777-10.757-15.989-10.757-25.598s3.871-18.82 10.757-25.598c7.483-6.785 16.838-10.486 26.192-10.486s18.708 3.084 26.192 10.486l130.959 129.53c6.86 6.785 10.601 16.037 10.601 25.906s-3.742 19.121-10.601 25.906l-135.948 134.464c-6.852 6.811-16.166 10.64-25.88 10.64zM554.276 515.466l-107.262-344.179c-6.236-19.121 4.365-39.476 24.945-45.644 3.118-1.234 6.86-1.85 10.601-1.85 15.59 0 29.934 10.486 34.922 25.906l107.262 344.179c6.236 19.121-4.989 39.476-24.321 45.644-19.956 6.168-40.535-4.934-46.148-24.056zM209.416 340.91c-6.86-6.785-11.225-15.42-11.225-25.289s3.742-19.121 10.601-25.906l130.959-129.53c7.483-6.785 16.838-10.486 26.192-10.486s18.708 3.084 26.192 10.486c6.886 6.777 10.757 15.989 10.757 25.598s-3.871 18.82-10.757 25.598l-104.767 103.624 109.756 109.175c14.343 14.187 14.343 37.008 0 51.195s-37.417 14.187-51.76 0l-135.948-134.464zM939.251 658.109c15.197 0 27.137 16.896 27.137 38.4s-11.94 38.4-27.137 38.4h-861.33c-15.197 0-27.137-16.896-27.137-38.4s11.94-38.4 27.137-38.4h861.33z" />
<glyph unicode="&#xe91d;" glyph-name="立项" d="M910.222 960h-796.444c-62.578 0-113.778-51.2-113.778-113.778v-796.444c0-62.578 51.2-113.778 113.778-113.778h796.444c62.578 0 113.778 51.2 113.778 113.778v796.444c0 62.578-51.2 113.778-113.778 113.778zM910.222 277.333h-227.556c0-96.711-73.956-170.667-170.667-170.667s-170.667 73.956-170.667 170.667h-227.556v568.889h796.444v-568.889zM739.556 561.778h-113.778v170.667h-227.556v-170.667h-113.778l227.556-227.556 227.556 227.556z" />
<glyph unicode="&#xe91f;" glyph-name="人员选择展开" horiz-adv-x="853" d="M815.138 388.1l-656.804-420.685c-87.446-56.009-158.334-35.473-158.334 48.431v864.737c0 82.757 71.327 104.159 158.334 48.431l656.804-420.685c51.834-33.2 50.012-88.195 0-120.228z" />
<glyph unicode="&#xe920;" glyph-name="用户（个人中心）" d="M512 37.516c-139.258 0-262.38 69.402-336.512 175.546 74.132 106.144 197.254 175.546 336.512 175.546 139.322 0 262.444-69.402 336.577-175.546-74.132-106.144-197.254-175.546-336.577-175.546zM512 789.333c94.304 0 170.732-76.429 170.732-170.667 0-94.304-76.429-170.667-170.732-170.667-94.238 0-170.667 76.363-170.667 170.667 0 94.238 76.429 170.667 170.667 170.667zM512 960c-282.78 0-512-229.22-512-512s229.22-512 512-512c282.78 0 512 229.22 512 512s-229.22 512-512 512z" />
<glyph unicode="&#xe921;" glyph-name="运营" d="M915.295 960v0c59.788 0 108.705-52.766 108.705-116.548v-791.484c0-63.783-48.917-115.968-108.705-115.968h-806.59c-59.788 0-108.705 52.186-108.705 115.968v792.063c0 63.783 48.917 115.968 108.705 115.968h806.59zM435.034 655.289c-50.769-65.866-177.466-198.595-177.466-198.595s-4.22-106.442-4.22-169.375h595.887c-28.722 101.232-55.096 175.132-84.785 279.769-45.763-38.27-87.5-73.163-133.936-111.978-65.35 66.928-129.046 132.16-195.48 200.178zM883.777 241.562h-677.41v444.675c0 9.35-7.555 16.978-16.875 16.978h-33.124c-9.204 0-16.875-7.583-16.875-16.937v-503.389c0-3.298 2.947-6.663 6.583-6.663h737.537c9.798 0 17.335 7.686 17.335 17.166v31.003c0 9.671-7.687 17.166-17.169 17.166z" />
<glyph unicode="&#xe922;" glyph-name="展开2" horiz-adv-x="1536" d="M1480.277 712.238l-667.415-667.73c-25.815-25.815-63.593-24.871-87.205-1.259l-668.99 668.989c-33.686 22.982-56.667 62.019-56.667 106.724v12.593c0 71.149 56.353 128.446 125.613 128.446h1284.46c67.371 0 125.927-57.612 125.927-128.446v-12.593c0-27.074-8.185-51.945-22.037-72.408l0.315-0.63-1.259-0.944c-8.815-12.908-19.834-23.926-32.741-32.741z" />
<glyph unicode="&#xe923;" glyph-name="日期" horiz-adv-x="922" d="M716.8 499.2h-512v-102.4h512v102.4zM819.2 857.6h-51.2v102.4h-102.4v-102.4h-409.6v102.4h-102.4v-102.4h-51.2c-56.832 0-101.888-46.080-101.888-102.4l-0.512-716.8c0-56.32 45.568-102.4 102.4-102.4h716.8c56.32 0 102.4 46.080 102.4 102.4v716.8c0 56.32-46.080 102.4-102.4 102.4zM819.2 38.4h-716.8v563.2h716.8v-563.2zM563.2 294.4h-358.4v-102.4h358.4v102.4z" />
<glyph unicode="&#xe924;" glyph-name="首页" d="M0 896.59c0 35.020 29.089 63.41 63.685 63.41h337.657c35.172 0 63.685-28.862 63.685-63.41v-257.18c0-35.020-29.090-63.41-63.685-63.41h-337.657c-35.172 0-63.685 28.862-63.685 63.41v257.18zM0 421.59c0 35.422 29.265 64.137 64.069 64.137h339.693c35.384 0 64.069-28.017 64.069-64.137v-421.454c0-35.422-29.265-64.137-64.069-64.137h-339.693c-35.384 0-64.069 28.017-64.069 64.137v421.454zM551.385 243.41c0 35.245 28.149 63.816 63.739 63.816h345.137c35.202 0 63.739-29.13 63.739-63.816v-243.594c0-35.245-28.149-63.816-63.739-63.816h-345.137c-35.202 0-63.739 29.13-63.739 63.816v243.594zM551.385 895.409c0 35.673 28.149 64.591 63.739 64.591h345.137c35.202 0 63.739-28.697 63.739-64.591v-433.888c0-35.673-28.149-64.591-63.739-64.591h-345.137c-35.202 0-63.739 28.697-63.739 64.591v433.888z" />
<glyph unicode="&#xe925;" glyph-name="上线" d="M915.295 960h-806.59c-59.788 0-108.705-52.186-108.705-115.968v-792.063c0-63.783 48.917-115.968 108.705-115.968h806.59c59.788 0 108.705 52.186 108.705 115.968v791.484c0 63.783-48.917 116.548-108.705 116.548v0zM521.597 581.578l312.889-312.889h-199.111v-113.778h-227.556v113.778h-199.111l312.889 312.889zM939.424 675.22h-861.33c-15.197 0-27.137 16.896-27.137 38.4s11.94 38.4 27.137 38.4h861.33c15.197 0 27.137-16.896 27.137-38.4s-11.94-38.4-27.137-38.4z" />
<glyph unicode="&#xe926;" glyph-name="提示" d="M460.8 192h102.4v307.2h-102.4v-307.2zM512 960c-281.6 0-512-230.4-512-512s230.4-512 512-512c281.6 0 512 230.4 512 512s-230.4 512-512 512zM512 38.4c-225.28 0-409.6 184.32-409.6 409.6s184.32 409.6 409.6 409.6c225.28 0 409.6-184.32 409.6-409.6s-184.32-409.6-409.6-409.6zM460.8 601.6h102.4v102.4h-102.4v-102.4z" />
<glyph unicode="&#xe927;" glyph-name="提示成功" d="M512 960c-281.6 0-512-230.4-512-512s230.4-512 512-512c281.6 0 512 230.4 512 512s-230.4 512-512 512zM409.6 192l-256 256 71.68 71.68 184.32-184.32 389.12 389.12 71.68-71.68-460.8-460.8z" />
<glyph unicode="&#xe928;" glyph-name="提示错误／搜索清除" d="M512 960c-281.6 0-512-230.4-512-512s230.4-512 512-512c281.6 0 512 230.4 512 512s-230.4 512-512 512zM768 263.68l-71.68-71.68-184.32 184.32-184.32-184.32-71.68 71.68 184.32 184.32-184.32 184.32 71.68 71.68 184.32-184.32 184.32 184.32 71.68-71.68-184.32-184.32 184.32-184.32z" />
<glyph unicode="&#xe929;" glyph-name="退出" horiz-adv-x="922" d="M645.199 787.968v-147.456c78.081-57.344 127.396-151.552 127.396-253.952 0-176.128-143.834-319.488-320.545-319.488s-320.545 143.36-320.545 319.488c0 106.496 49.315 196.608 127.396 253.952v147.456c-152.053-73.728-258.901-225.28-258.901-405.504 0-245.76 201.368-446.464 447.941-446.464s447.941 200.704 447.941 446.464c4.11 180.224-98.629 335.872-250.682 405.504zM517.803 960h-127.396v-446.464h127.396v446.464z" />
<glyph unicode="&#xe92a;" glyph-name="退市" d="M910.222 960h-796.444c-62.578 0-113.778-51.2-113.778-113.778v-796.444c0-62.578 51.2-113.778 113.778-113.778h796.444c62.578 0 113.778 51.2 113.778 113.778v796.444c0 62.578-51.2 113.778-113.778 113.778zM455.111 163.556v170.667h-341.333v227.556h341.333v170.667l284.444-284.444-284.444-284.444z" />
<glyph unicode="&#xe92b;" glyph-name="未读" horiz-adv-x="2526" d="M2440.369 960c44.767 0 81.429-35.63 81.429-79.125v-863.109c0-43.468-36.649-79.071-81.416-79.071h-2124.496c-44.767 0-81.375 35.603-81.375 79.071v212.002l-234.511 216.79 234.511 216.71v217.606c0 43.494 36.608 79.125 81.375 79.125h2124.483zM1356.115 195.042c-137.13 54.953-246.277 136.624-327.446 245.018h314.59v55.961h-335.765v142.171h294.172v55.961h-294.172v129.315h-58.986v-129.315h-291.147v-55.961h291.147v-142.171h-335.765v-55.961h312.322c-79.404-101.083-187.544-187.544-324.421-259.386 17.645-20.166 31.257-37.055 40.836-50.667 128.055 75.371 230.397 163.849 307.028 265.436v-315.347h58.986v316.103c71.338-105.116 173.427-190.821 306.272-257.117 14.116 20.166 28.232 38.82 42.349 55.961zM1588.276 604.917v-52.936h460.542l-8.318-91.503c20.67-0.504 40.080-1.764 58.229-3.781l9.075 148.22h-231.405v75.623h216.281v52.936h-216.281v87.722h-57.473v-87.722h-202.669v-52.936h202.669v-75.623h-230.649zM1582.227 335.7v-52.936h260.898c-32.77-64.532-122.256-116.459-268.461-155.783 14.116-18.654 26.72-36.803 37.811-54.448 122.509 36.299 206.45 81.924 251.824 136.877 66.548-37.812 137.633-80.664 213.256-128.559l37.811 51.423c-72.598 42.349-146.456 83.689-221.574 124.021 4.033 8.066 7.814 16.889 11.343 26.468h212.5v52.936h-201.156c7.562 36.299 10.587 101.838 9.075 196.619h-57.473c2.521-89.739-1.26-155.278-11.343-196.619h-274.51zM1610.207 260.834c-32.77-23.695-61.758-44.113-86.966-61.254v358.452h-147.464v-54.448h90.747v-292.66c0-28.233-8.57-49.911-25.712-65.035l34.786-49.911c37.812 30.249 84.445 63.271 139.902 99.066-2.521 20.67-4.285 42.601-5.294 65.792zM1463.499 802.292l-46.13-37.811c37.307-40.332 73.606-82.681 108.897-127.046l52.18 43.105c-38.316 42.853-76.631 83.437-114.946 121.753zM1613.988 421.154c49.911-25.712 95.284-51.675 136.121-77.891l29.493 45.374c-44.87 26.216-90.999 50.667-138.39 73.354l-27.224-40.836zM1669.193 503.583c46.382-23.695 90.999-48.902 133.852-75.623l30.249 46.13c-43.357 24.199-88.73 47.894-136.121 71.085l-27.98-41.592z" />
<glyph unicode="&#xe92c;" glyph-name="产品目录" horiz-adv-x="922" d="M819.2 960c56.32 0 102.4-51.2 102.4-113.778v-796.444c0-62.578-46.080-113.778-102.4-113.778h-716.8c-56.32 0-102.4 51.2-102.4 113.778v796.444c0 62.578 46.080 113.778 102.4 113.778h716.8zM92.16 857.6v-819.2h733.867v819.2h-733.867zM716.8 618.667h-512v113.778h512v-113.778zM716.8 391.111h-512v113.778h512v-113.778zM563.2 163.556h-358.4v113.778h358.4v-113.778z" />
<glyph unicode="&#xe92d;" glyph-name="图片" d="M629.029 53.029v43.883h351.082v702.175h-351.088v43.883h394.971v-789.942h-394.966zM0 850.943l577.032 109.057v-1024l-577.032 109.052v805.891zM87.772 301.719c0-25.261 18.412-41.688 39.451-44.314l285.641-35.685c32.891-4.112 69.885 17.514 69.885 50.742v351.082c0 46.031-34.309 60.652-73.146 54.859l-281.602-38.401c-25.035-6.502-40.228-35.081-40.228-60.342v-277.942zM140.798 614.401l268.798 38.401c25.67 4.312 43.883-1.597 43.883-43.883v-175.544l-66.271 33.096c-6.365 3.849-14.258 2.789-19.794-1.654l-0.152 0.2-74.779-60.332-1.087 0.016-98.070 94.846c-0.047 0.021-0.095 0.016-0.116 0.042-1.077 0.663-2.255 1.146-3.487 1.428-0.415 0.11-0.756 0.441-1.192 0.473-1.087 0.2-2.227 0.026-3.351-0.1-0.499-0.079-1.050 0.047-1.534-0.079-0.567-0.147-1.092-0.572-1.612-0.777-1.050-0.42-2.090-0.767-3.020-1.486-0.042-0.026-0.116-0.026-0.136-0.058l-61.865-50.984v131.65c0.016 12.846 6.68 30.287 23.785 34.745v0zM344.948 506.908c29.142-0.394 52.985 23.323 51.908 52.906-1.082 29.593-26.589 52.060-55.658 50.185-27.839-1.801-48.804-25.471-47.812-52.806 0.998-27.346 23.638-49.907 51.561-50.285v0zM950.854 126.17h-321.825v643.66h321.825v-643.66z" />
<glyph unicode="&#xe92e;" glyph-name="压缩文件" horiz-adv-x="973" d="M911.36 960h-527.36v-81.92h-76.8v81.92h-245.76c-33.28 0-61.44-28.16-61.44-61.44v-901.12c0-33.28 28.16-61.44 61.44-61.44h849.92c33.28 0 61.44 28.16 61.44 61.44v901.12c0 33.28-28.16 61.44-61.44 61.44zM307.2 796.16h76.8v-81.92h-76.8v81.92zM307.2 632.32h76.8v-81.92h-76.8v81.92zM465.92 314.88c0-12.8-12.8-17.92-17.92-17.92h-122.88c-12.8 0-17.92 12.8-17.92 17.92v153.6h81.92v81.92h76.8v-235.52zM465.92 632.32h-76.8v81.92h76.8v-81.92zM465.92 796.16h-76.8v81.92h76.8v-81.92zM331.453 375.242h105.095v-45.81h-105.095v45.81z" />
<glyph unicode="&#xe92f;" glyph-name="智慧管理" horiz-adv-x="936" d="M763.661 441.211l-0.289 1.915c2.607 27.272-20.7 48.263-45.445 48.263h-41.045v295.051h-84.3v-126.915h-421.501v126.915h-84.3v-676.881h297.286c0.675-5.469 2.314-10.914 4.888-16.161l0.886-1.687 38.649-68.931h-343.638c-46.668 0-84.851 38.341-84.851 85.202v681.615c0 46.861 38.183 85.202 84.851 85.202h178.188c16.97 51.121 63.638 85.202 118.792 85.202s101.821-34.081 118.792-85.202h178.188c46.668 0 84.851-38.341 84.851-85.202v-348.385zM566.319 439.322l-5.847-40.223c-2.958-1.683-5.958-3.521-9.054-5.529-1.556-1.009-4.132-2.76-6.998-4.731l-43.985 18.678-2.402 0.917c-21.051 7.151-39.524 0.876-53.913-13.789l-3.239-3.301-21.756-38.802h-245.565v86.78h392.759zM381.752 283.119c-3.256-15.943 4.507-32.499 16.156-44.371l1.639-1.67 40.324-31.311c-0.331-3.185-0.508-6.145-0.545-9.427h-265.767v86.78h208.192zM390.508 873.22c-26.034 0-43.39-17.356-43.39-43.39s17.356-43.39 43.39-43.39c26.034 0 43.39 17.356 43.39 43.39s-17.356 43.39-43.39 43.39zM173.559 491.39v86.78h416.542v-86.78h-416.542zM856.562 168.866c0 7.849 2.567 15.699 2.567 26.165s0 18.315-2.567 26.165l53.914 44.48c5.135 5.233 5.135 10.466 2.567 15.699l-51.347 91.577c-2.567 2.616-7.702 5.233-15.404 2.616l-64.183-26.165c-12.837 10.466-28.241 18.315-43.645 26.165l-10.269 68.028c2.567 7.849-5.135 13.082-10.269 13.082h-102.693c-5.135 0-12.837-5.233-12.837-10.466l-10.269-70.645c-15.404-5.233-28.241-15.699-43.645-26.165l-61.616 26.165c-7.702 2.616-12.837 0-17.971-5.233l-51.347-91.577c-2.567-2.616 0-10.466 5.135-15.699l53.914-41.864c0-7.849-2.567-15.699-2.567-26.165s0-18.315 2.567-26.165l-53.914-44.48c-5.135-5.233-5.135-10.466-2.567-15.699l51.347-91.577c2.567-2.616 7.702-5.233 15.404-2.616l64.183 26.165c12.837-10.466 28.241-18.315 43.645-26.165l10.269-68.028c0-5.233 5.135-10.466 12.837-10.466h102.693c5.135 0 12.837 5.233 12.837 10.466l10.269 68.028c15.404 7.849 30.808 15.699 43.645 26.165l64.183-26.165c5.135-2.616 12.837 0 15.404 5.233l51.347 91.577c2.567 5.233 2.567 13.082-2.567 15.699l-59.048 41.864zM659.525 92.203c-47.109 0-86.78 43.638-86.78 95.458s39.671 95.458 86.78 95.458c47.109 0 86.78-43.638 86.78-95.458s-39.671-95.458-86.78-95.458z" />
<glyph unicode="&#xe930;" glyph-name="excl" horiz-adv-x="967" d="M568.564 959.555l-552.526-108.847c-9.4-2.069-16.095-10.603-16.038-20.445v-764.286c0-9.83 6.702-18.636 16.005-20.479l552.559-108.813c1.234-0.239 2.467-0.648 3.701-0.648 4.503-0.070 8.88 1.517 12.337 4.471 4.626 3.994 7.327 9.848 7.402 16.042v983.106c-0.075 6.194-2.777 12.048-7.402 16.042-4.478 3.724-10.379 5.134-16.005 3.823l-0.033 0.034zM631.482 837.293v-143.389h39.445v-40.958h-39.411v-102.43h39.445v-40.959h-39.445v-102.43h39.445v-40.959h-39.445v-122.91h39.445v-40.959h-39.445v-143.423h295.985c21.74 0 39.478 18.397 39.478 40.959v696.465c0 22.561-17.738 40.959-39.478 40.959l-296.019 0.034zM710.405 693.904h157.879v-40.958h-157.879v40.958zM131.972 638.849h101.096l53.015-114.581c4.168-9.045 7.869-20.138 11.137-32.664h0.6c2.067 7.441 6.102 19.114 11.703 33.927l58.584 113.319h92.527l-110.365-189.467 113.433-193.324h-98.028l-64.152 124.821c-2.401 4.642-4.868 13.209-7.402 25.599h-0.6c-2.286-9.157-5.183-18.144-8.669-26.896l-64.118-123.524h-98.628l117.801 191.379-107.931 191.413zM710.405 550.516h157.879v-40.959h-157.879v40.959zM710.405 407.127h157.879v-40.959h-157.879v40.959zM710.405 243.259h157.879v-40.959h-157.879v40.959z" />
<glyph unicode="&#xe931;" glyph-name="ppt" d="M577.294 67.818v734.738h446.091v-734.738h-446.091zM734.738 645.112c-73.474 0-131.203-57.729-131.203-131.203s57.729-131.203 131.203-131.203c73.474 0 131.203 57.729 131.203 131.203h-131.203v131.203zM760.979 671.353v-131.203h131.203c0 73.474-57.729 131.203-131.203 131.203zM918.422 303.984h-314.888v-52.481h314.888v52.481zM918.422 199.021h-314.888v-52.481h314.888v52.481zM0 802.556l551.053 157.444v-1023.385l-551.053 157.444v708.497zM183.684 251.503h52.481v157.444h28.865c73.474 0 128.579 47.233 128.579 104.963s-55.105 104.963-128.579 104.963h-81.346v-367.369zM341.128 513.909c0-28.865-28.865-52.481-73.474-52.481h-31.489v104.963h31.489c44.609 0 73.474-23.617 73.474-52.481v0z" />
<glyph unicode="&#xe932;" glyph-name="txt" horiz-adv-x="1126" d="M664.187 850.752v-71.202h328.832v-45.656h-328.832v-73.919h328.832v-45.656h-328.832v-72.832h328.832v-45.656h-328.832v-72.832h328.832v-45.656h-328.832v-72.832h328.832v-45.656h-328.832v-72.289h328.832v-45.656h-328.832v-94.573h422.862v804.416h-422.862zM0 45.792l617.444-109.792v1024l-617.444-109.792v-804.416zM201.648 577.902v-33.155h-55.983v-154.361h-39.677v154.361h-56.527v33.155h152.187zM254.369 389.843h-45.656l60.331 95.66-57.070 92.399h46.743l33.699-61.418 34.242 61.418h45.113l-57.070-90.769 60.875-97.291h-47.83l-35.873 64.136-37.503-64.136zM534.828 577.902v-33.155h-55.983v-154.361h-39.677v154.361h-56.527v33.155h152.187z" />
<glyph unicode="&#xe933;" glyph-name="word" d="M625.481 827.465v-66.962h309.943v-43.264h-309.943v-69.742h309.943v-43.264h-309.943v-68.352h309.943v-43.227h-309.943v-68.389h309.943v-43.227h-309.943v-68.389h309.943v-43.227h-309.943v-68.352h309.943v-43.264h-309.943v-89.271h398.519v758.93h-398.519zM0 851.2v-806.4l577.024-108.8v1024l-577.024-108.8zM417.902 273.627h-84.37l-53.979 238.555-67.803-238.555h-58.149l-83.017 351.561h83.017l33.207-219.063 55.369 241.371h87.15l47.067-263.68 49.81 263.68h83.017l-91.319-373.87z" />
<glyph unicode="&#xe934;" glyph-name="xmind" horiz-adv-x="819" d="M85.598 960h478.126c22.707 0.001 44.485-8.993 60.539-25.003l163.834-163.328c16.059-16.005 25.081-37.715 25.080-60.352v-689.984c0-47.128-38.323-85.333-85.598-85.333h-641.981c-47.274 0-85.598 38.205-85.598 85.333v853.333c0 47.128 38.323 85.333 85.598 85.333zM330.727 605.867l-120.842-10.027c-15.108-55.232 100.705-170.667 100.705-170.667 5.029-15.061-10.079-15.061-10.079-15.061-115.813-15.061-115.813-145.579-115.813-145.579h110.785c-5.050 115.456 45.302 115.456 45.302 115.456 115.813 5.013 120.842-155.605 120.842-155.605h120.842c0 65.237-100.684 175.68-100.684 175.68-15.108 20.075 0 25.088 0 25.088 105.713 5.035 130.9 130.517 130.9 130.517h-100.705c-25.166-105.408-110.763-105.408-110.763-105.408-75.54 10.027-70.49 155.605-70.49 155.605z" />
<glyph unicode="&#xe935;" glyph-name="加" d="M563.2 704h-102.4v-204.8h-204.8v-102.4h204.8v-204.8h102.4v204.8h204.8v102.4h-204.8v204.8zM512 960c-281.6 0-512-230.4-512-512s230.4-512 512-512c281.6 0 512 230.4 512 512s-230.4 512-512 512zM512 38.4c-225.28 0-409.6 184.32-409.6 409.6s184.32 409.6 409.6 409.6c225.28 0 409.6-184.32 409.6-409.6s-184.32-409.6-409.6-409.6z" />
<glyph unicode="&#xe936;" glyph-name="减" d="M256 499.2v-102.4h512v102.4h-512zM512 960c-281.6 0-512-230.4-512-512s230.4-512 512-512c281.6 0 512 230.4 512 512s-230.4 512-512 512zM512 38.4c-225.28 0-409.6 184.32-409.6 409.6s184.32 409.6 409.6 409.6c225.28 0 409.6-184.32 409.6-409.6s-184.32-409.6-409.6-409.6z" />
</font>
</defs>
</svg>
